<?xml version="1.0" encoding="UTF-8"?>
<svg id="Capa_2" xmlns="http://www.w3.org/2000/svg" viewBox="0 0 729 342">
  <defs>
    <style>
      .cls-1 {
        fill: #fefefe;
      }

      .cls-2 {
        fill: #f6a0a0;
      }
    </style>
  </defs>
  <g id="Capa_1-2" data-name="Capa_1">
    <g>
      <path class="cls-1" d="M364.38.11C484.49.11,604.6.13,724.7,0c3.72,0,4.3.9,4.29,4.39-.11,111.07-.11,222.14,0,333.22,0,3.5-.59,4.39-4.3,4.39-240.22-.12-480.44-.11-720.66,0-3.51,0-4.05-.81-4.05-4.14C.11,226.62.11,115.38,0,4.14,0,.8.55,0,4.05,0c120.11.12,240.22.1,360.33.1Z"/>
      <path class="cls-2" d="M283.22,189.69c-2.32,2.37-4.26,4.38-5.22,7.09-4.22,11.99-10.97,22.18-20.37,30.86-10.66,9.84-24.29,9.2-33.19-2.26-2.57-3.3-3.86-.61-5.41.89-6.44,6.25-13.76,8.84-22.78,6.47-4.39-1.16-7.49-3.53-9.55-7.29-2.36-4.29-4.3-3.65-7.51-.58-5.5,5.26-11.26,10.45-19.53,11-8.5.57-14.38-3.59-19.52-9.92-6.82-8.4-8.83-18.53-10.81-28.57-3.79-19.31-4.7-38.91-3.98-58.54.62-16.97,3.59-33.64,7.63-50.12,1.61-6.56,4.9-12.41,8.6-17.92,3.29-4.9,8.13-8.28,14.33-7.38,6.44.94,10.82,5.34,12.85,11.29,4.12,12.04,3.71,24.59,2.64,37.02-2.41,27.94-14.31,52.71-26.71,77.21-2.75,5.42-2.86,10.33-1.08,15.73,1.78,5.41,4.5,10.4,7.29,15.3,2.9,5.1,12.14,4.72,16.79-1.09,4.43-5.55,8.49-11.53,11.85-17.78,3.84-7.14,7.49-14.43,10.42-22.05,1.71-4.46,7.13-6.71,10.56-4.96,3.86,1.97,4.35,6.29,1.37,11.22-5.37,8.89-6.78,18.63-5.98,28.8.24,3.03,1.81,5.6,4.58,6.67,3.18,1.23,6.2-.14,8.8-2.16,6.48-5.04,8.18-12.28,8.89-19.88.51-5.45.76-10.93,1.02-16.4.19-4.05,1.86-6.73,6.19-6.96,3.98-.21,7.36,2.83,7.3,7.2-.12,7.97-1.18,15.9-.95,23.9.1,3.38.58,6.53,1.94,9.66,2.98,6.9,8.47,8.01,14.19,2.95,9.21-8.14,15.1-18.38,19.48-29.67,1.99-5.12,4.63-9.94,8.31-14.07,3.52-3.95,7.93-6.88,13.21-4.8,5.1,2.02,7.82,6.53,7.86,12.24.04,5.5-.02,10.99.04,16.49.01,1.23-.56,3.02,1.22,3.35,1.26.23,1.75-1.37,2.37-2.28,4.43-6.44,9.06-12.68,14.28-18.54,4.82-5.4,10.87-8.29,16.11-6.01,6.08,2.65,8.82,8.08,9.08,14.4.33,7.98-.05,15.98-.04,23.97,0,2.97-.3,6.45,3.19,7.7,3.23,1.15,6.34-.1,8.59-2.64,4.72-5.33,9.46-10.64,12.82-17.04,4.81-9.17,10.63-17.57,19.12-23.87,4.97-3.68,10.93-4.57,16.53-4.69,6.68-.14,13.64,1.11,18.52,6.8,2.14,2.49,3.23,5.2.47,7.95-2.41,2.4-5.17,4.91-8.6,2.11-11.98-9.74-26.64-.87-29.59,13.26-.64,3.06-1.58,6.17-1.02,9.37.59,3.35,1.49,6.92,5.2,7.82,3.64.88,6.72-.96,9.16-3.83,3.4-4.01,5.58-8.63,7.11-13.6.54-1.75,1.05-3.52,1.81-5.17,1.23-2.66,3.46-4.27,6.37-3.88,2.76.37,3.99,2.52,4.55,5.24,1.14,5.49,1.02,11.2,3.57,16.48,3.09,6.41,8.15,7.87,13.6,3.51,8.88-7.11,13.69-17.14,18.33-26.99,2.19-4.65-.27-10.46-.91-15.68-2.01-16.44-1.52-32.86-.03-49.26,1.2-13.22,2.89-26.42,6.8-39.15,2.47-8.04,5.22-16.13,12.27-21.74,10.16-8.09,19.76-1.34,23.07,7.41,5,13.22,3.89,26.98,2.42,40.47-3.04,27.93-14.87,52.94-27.7,77.47-1.28,2.44-1.5,4.47-.88,7.06,1.56,6.53,4.53,12.51,7.27,18.54,2.81,6.18,11.49,7.46,16.55,2.48,5.09-5,9.41-10.68,12.74-17.09,3.83-7.38,7.17-14.96,10.35-22.63,1.55-3.74,4.22-6.37,8.68-6.4,5.15-.03,7.87,3.78,5.35,8.26-3.72,6.6-6.61,13.36-7.38,20.96-.4,3.98-.68,7.89.47,11.85,1.85,6.37,6.89,8.13,12.07,3.88,5.82-4.78,9.02-10.94,9.41-18.55.29-5.64.67-11.28,1.16-16.9.45-5.19,3.72-8.64,7.54-8.24,4.67.5,7.64,3.83,6.76,9.23-1.08,6.6-.28,13.28-1.55,19.85-.75,3.85.53,7.6,1.83,11.2,2.65,7.37,8.84,8.65,14.88,3.45,6.47-5.57,10.54-12.77,14.52-20.08.87-1.61,1.53-3.38,2.61-4.82,1.83-2.44,4.39-3.86,7.41-2.67,2.73,1.07,3.98,3.4,3.59,6.44-.1.82.05,1.73-.24,2.48-5.82,15.29-14.69,27.89-30.95,33.43-6.45,2.2-16.36-1.06-20.05-6.62-2.64-3.97-4.91-2.6-7.18-.27-9.67,9.95-24.48,8.67-32.14-3.01-2.44-3.72-4.55-2-6.18.29-3.01,4.23-7.1,6.9-11.57,9.18-9.3,4.76-21.06,2.21-27.2-6.1-2.66-3.6-5.32-7.26-6.91-11.52-.41-1.11-.67-2.46-1.97-2.65-1.74-.26-1.8,1.61-2.65,2.53-6.67,7.2-11.82,16.19-22.75,18.23-8.14,1.52-14.94-.36-19.77-7.16-2.32-3.27-3.88-3.34-6.44-.46-6.82,7.67-15.28,8.56-24.6,5.61-3.6-1.14-5.77-4-7.72-6.78-2.25-3.21-3.88-2.66-6.33-.39-5.58,5.17-11.68,9.24-19.84,9.08-10.61-.21-17.72-6.55-18-17.17-.19-7.46-.75-14.97.59-22.41.2-1.12.53-2.41-.7-3.17-1.24-.77-2.13.21-3.13.81-3.4,2.05-5.37,5.3-7.56,8.46-6.11,8.78-9.85,18.84-15.43,27.9-3.46,5.62-7.91,7.28-13.39,5.19-4.83-1.84-5.78-5.81-5.46-10.12.72-9.75,1.78-19.48,2.73-29.22.13-1.31.39-2.6-.75-4.47Z"/>
      <path class="cls-2" d="M591.18,146.76c15.15,2.94,26.52-.73,30.97-17.99,2.22,4.85,1.43,7.97,1.47,10.94.14,8.44,2.5,15.39,11.19,18.7,1.38.53,2.97,1.56,2.55,3.25-.41,1.66-2.24,1.04-3.48,1.04-3-.01-5.93.33-8.9.86-4.38.78-7.74,2.44-9.68,6.78-.99,2.22-2.89,4.03-4.35,6.05-.65.91-1.02,2.42-2.5,1.81-1.33-.54-1.09-1.86-.78-3.05.8-3.12.31-6.27.25-9.43-.14-8.37-6.78-11.13-12.53-14.61-1.39-.84-3.18-1.05-4.2-4.36Z"/>
      <path class="cls-2" d="M63.48,216.42c1.81.4,1.99,2.29,2.42,3.44,2.84,7.5,8.7,10.47,16.09,11.43,1.29.17,3.02.19,3.29,1.67.31,1.7-1.65,1.78-2.71,2.41-2,1.18-4.1,2.2-6.1,3.37-5.14,2.99-4.53,8.43-5.56,13.16-.27,1.22.35,2.73-1.54,3.8-1.23-2.04-2.89-3.95-3.62-6.17-1.91-5.77-5.81-8.34-11.7-8.99-2.12-.23-5.9,0-6.15-1.9-.37-2.78,3.45-3,5.51-3.95,6.44-2.95,8.93-8.02,8.98-14.73,0-.98.15-1.97.32-2.94.04-.23.47-.39.76-.61Z"/>
      <path class="cls-2" d="M639.19,222.09c-3.62-.05-6.87.06-7.19-4.17-.24-3.15,3.81-6.95,7.42-6.63,3.09.28,5.18,2.61,5.32,5.59.18,3.87-2.13,5.74-5.55,5.2Z"/>
      <path class="cls-2" d="M96.17,203.93c.43,3.5-.92,5.26-4.69,5.1-3.39-.14-6.18-1.32-6.15-4.9.02-3.12,1.25-6.42,5.42-6.23,3.61.17,5.96,1.9,5.43,6.03Z"/>
      <path class="cls-2" d="M638.61,203.28c-.63,2.11-1.68,3.52-3.8,3.53-2.07.01-2.89-1.34-2.81-3.25.1-2.23,1.18-3.99,3.48-4.01,2.31-.02,2.39,2.31,3.12,3.73Z"/>
      <path class="cls-2" d="M628.15,213.73c-1.7-.62-2.6-2.15-2.53-3.77.08-1.76,1.37-3.16,3.36-2.72,1.48.33,2.87,1.46,2.41,3.18-.4,1.48-.93,3.31-3.24,3.31Z"/>
      <path class="cls-2" d="M90.92,189.81c-.49,1.89-1.15,3.31-3.3,3.24-1.87-.05-2.7-.95-2.6-2.8.13-2.36,1.76-3.1,3.71-3.05,1.55.04,2.13,1.31,2.19,2.6Z"/>
      <path class="cls-2" d="M83.89,196.85c-.03,1.52-.57,2.86-2.19,2.77-1.95-.11-2.77-1.77-2.98-3.46-.18-1.43,1-1.99,2.29-2,1.78-.01,2.73.96,2.88,2.69Z"/>
      <path class="cls-2" d="M96.59,188.31c1.76.06,2.34,1.17,2.4,2.61.07,1.72-.74,2.88-2.51,3.08-1.39.16-2.95-.09-3.05-1.73-.12-2.06,1.64-3.03,3.16-3.96Z"/>
      <path class="cls-2" d="M643.41,208.94c-2.19-.03-2.49-1.21-2.45-2.67.05-1.65.63-2.89,2.46-3.11,1.66-.2,2.53.61,2.37,2.25-.17,1.7-.81,3.16-2.38,3.53Z"/>
      <path class="cls-2" d="M648.82,209.36c1.35.42,2.53,1.23,2.4,2.65-.15,1.58-1.44,2.6-3,2.66-1.54.06-2.25-1.05-2.23-2.58.03-1.86,1.33-2.39,2.83-2.74Z"/>
      <path class="cls-2" d="M100.51,200.81c-1.37-.3-1.49-1.28-1.38-2.26.13-1.16.52-2.4,2.03-2.05,1.19.28.95,1.51.93,2.43-.02,1.06-.45,1.85-1.58,1.88Z"/>
      <path class="cls-1" d="M138.12,154.26c1.75-22.24.49-44.81,7.77-66.41,1.02-3.03,2.55-5.75,3.98-8.54.74-1.45,1.24-3.22,3.36-3.21,2.14.01,3.37,1.58,4.15,3.16,1.87,3.77,2.5,7.91,2.52,12.07.09,15.36-2.35,30.34-6.55,45.1-2.87,10.06-5.76,20.08-10.8,29.32-.66,1.2-.89,3.32-2.89,2.79-1.78-.47-1.52-2.36-1.54-3.82-.05-3.49-.01-6.98-.01-10.47Z"/>
      <path class="cls-1" d="M460.92,143.29c-.33-19.6,1.74-40.96,9.81-61.44,1.1-2.78,1.9-5.79,5.34-5.41,3.27.36,4.43,3.47,4.7,6.32.7,7.27,1.56,14.55,1.01,21.88-1.54,20.45-7.32,39.75-15.82,58.31-.35.76-.66,1.54-1.11,2.24-.67,1.07-.98,2.87-2.64,2.55-1.77-.33-1.27-2.09-1.28-3.33-.05-6.32-.02-12.65-.02-21.12Z"/>
    </g>
  </g>
</svg>